<svg width="37" height="35" viewBox="0 0 37 35" fill="none" xmlns="http://www.w3.org/2000/svg">
<path d="M16.8256 31.4217C16.8481 31.3997 16.874 31.38 16.9025 31.3634C17.0905 31.2535 17.332 31.317 17.4416 31.5046L18.6 33.4885C18.7104 33.6768 18.6484 33.9188 18.4589 34.0274C18.2709 34.1373 18.0295 34.074 17.9201 33.8861L16.7612 31.9022C16.6677 31.7423 16.6994 31.5451 16.8256 31.4217Z" fill="#002C62"/>
<path d="M19.1901 31.4492C19.3166 31.3259 19.5148 31.2993 19.6718 31.3961C19.8576 31.5098 19.915 31.7527 19.8007 31.9384L18.5951 33.8941C18.4826 34.0805 18.2392 34.1375 18.0532 34.0226C17.8679 33.9091 17.8105 33.6662 17.9247 33.4804L19.1296 31.5246C19.1472 31.4966 19.1674 31.4713 19.1901 31.4492Z" fill="#002C62"/>
<path d="M13.4058 0.754822L0.63147 13.2305L18.2539 34.2452L36.2983 13.6523L23.7023 0.754822H13.4058Z" fill="black"/>
<path d="M17.0936 5.81719C17.1662 5.74672 17.265 5.704 17.3737 5.7051C17.5917 5.70769 17.7655 5.88582 17.7628 6.10378L17.4955 31.7082C17.4928 31.9261 17.3146 32.1001 17.0966 32.0975C16.879 32.0948 16.705 31.9166 16.7072 31.6988L16.975 6.0942C16.9762 5.98534 17.0216 5.88765 17.0936 5.81719Z" fill="#002C62"/>
<path d="M19.4576 5.8452C19.5298 5.77459 19.6289 5.7318 19.7378 5.73322C19.9554 5.73566 20.1294 5.91396 20.127 6.13181L19.8594 31.7361C19.8567 31.9541 19.6785 32.128 19.4607 32.1255C19.2427 32.1229 19.0686 31.9447 19.0713 31.7268L19.3389 6.12256C19.3401 6.01322 19.3858 5.91538 19.4576 5.8452Z" fill="#002C62"/>
<path d="M18.2331 9.47241C18.3054 9.40191 18.4047 9.35904 18.5131 9.36029C18.7312 9.36291 18.9052 9.54113 18.9026 9.759L18.7148 25.6009C18.7119 25.8186 18.5337 25.9927 18.3159 25.9902C18.0981 25.9875 17.9243 25.8095 17.9267 25.5916L18.1145 9.74969C18.1154 9.64083 18.1611 9.54284 18.2331 9.47241Z" fill="black"/>
<path d="M8.88757 7.90118C9.06726 25.4772 18.3329 31.1382 18.3329 31.1382C18.3329 31.1382 27.5111 25.4853 27.7665 7.90118H8.88757Z" fill="#F5AF19"/>
<path d="M18.3238 29.282C16.2681 27.5707 10.9349 21.9505 10.4131 9.38815H26.2342C25.6588 21.8953 20.3421 27.5677 18.3238 29.282Z" fill="white"/>
<path d="M18.3482 6.59552C18.4073 6.59552 18.4659 6.59702 18.5233 6.59998C18.5809 6.59702 18.6392 6.59552 18.6985 6.59552C19.3963 6.59552 20.1944 6.80645 20.9815 7.09341C21.5735 5.87794 22.7291 3.96548 22.7291 3.96548C22.0135 3.77079 21.5137 4.37059 21.5137 4.37059C20.9715 3.99183 20.9085 4.581 20.9085 4.581C20.6456 4.823 20.8087 5.05988 20.8087 5.05988C20.856 4.79147 21.2347 4.91784 21.2347 4.91784C21.2137 5.71754 20.4771 5.87542 20.1033 5.85447C19.73 5.83342 20.0296 5.14935 20.0296 5.14935C19.8668 5.23869 19.6719 5.71754 19.272 5.60183C18.8724 5.48608 18.9669 4.29696 19.0037 4.09166C19.0406 3.88644 19.1089 3.67072 19.4088 3.67609C19.7088 3.68122 19.4879 4.12325 19.4879 4.12325C20.0562 4.23891 19.8353 3.59725 19.8353 3.59725C19.5352 2.87109 19.0091 3.51287 18.9249 3.6971C18.8406 3.88119 18.7774 3.70241 18.7774 3.70241C18.8089 3.10263 19.2877 2.9026 19.2877 2.9026C19.188 2.63955 18.6566 2.91303 18.6566 2.91303V2.65524C18.9722 2.57633 18.8299 2.38691 18.8299 2.38691C18.6566 2.18181 18.5301 1.4082 18.5301 1.4082C18.5301 1.4082 18.4041 2.18181 18.2303 2.38691C18.2303 2.38691 18.0882 2.57633 18.4041 2.65524V2.91303C18.4041 2.91303 17.8724 2.63955 17.7728 2.9026C17.7728 2.9026 18.2513 3.10263 18.283 3.70241C18.283 3.70241 18.2198 3.88119 18.1356 3.6971C18.0513 3.51287 17.525 2.87109 17.2252 3.59725C17.2252 3.59725 17.0042 4.23891 17.5726 4.12325C17.5726 4.12325 17.3516 3.68122 17.6514 3.67609C17.9515 3.67072 18.0198 3.88644 18.0567 4.09166C18.0933 4.29696 18.1883 5.48608 17.7881 5.60183C17.3885 5.71754 17.1937 5.23869 17.0306 5.14935C17.0306 5.14935 17.3304 5.83342 16.9568 5.85447C16.5833 5.87542 15.8467 5.71754 15.8257 4.91784C15.8257 4.91784 16.2044 4.79147 16.2518 5.05988C16.2518 5.05988 16.4149 4.823 16.1517 4.581C16.1517 4.581 16.0889 3.99183 15.5472 4.37059C15.5472 4.37059 15.0467 3.77079 14.3314 3.96548C14.3314 3.96548 15.4847 5.87464 16.0772 7.09025C16.8594 6.80486 17.6531 6.59552 18.3482 6.59552Z" fill="#002C62"/>
<path d="M17.8122 12.5044L17.7936 27.2526L15.8466 25.3993V12.5044H13.6159V14.3378H11.8578V10.822H17.8115" fill="#002C62"/>
<path d="M18.9011 10.822H24.8544V14.3378H23.0964V12.5043H20.8657V25.3993L18.9186 27.2526L18.9001 12.5043" fill="#F5AF19"/>
</svg>
