<svg width="16" height="19" viewBox="0 0 16 19" fill="none" xmlns="http://www.w3.org/2000/svg">
<path d="M13.1519 1.0921H3.39516C2.60054 1.0921 1.90283 1.7458 1.90283 2.51956V16.9527C1.90283 17.2117 1.97492 17.4276 2.0911 17.5943C2.23004 17.7937 2.45375 17.908 2.69364 17.9079C2.92045 17.9079 3.16193 17.807 3.38493 17.6165L7.75008 13.9102C7.8849 13.7951 8.07855 13.7291 8.2799 13.7291C8.48117 13.7291 8.67443 13.7951 8.80965 13.9106L13.1602 17.6159C13.384 17.807 13.6088 17.908 13.8352 17.908C14.2181 17.908 14.5913 17.6127 14.5913 16.9528V2.51956C14.5913 1.7458 13.9465 1.0921 13.1519 1.0921Z" stroke="#FEC115" stroke-width="2"/>
</svg>
