<svg width="13" height="17" viewBox="0 0 13 17" fill="none" xmlns="http://www.w3.org/2000/svg">
<path d="M11.4048 0.0921021H1.64809C0.85347 0.0921021 0.155762 0.745797 0.155762 1.51956V15.9527C0.155762 16.2117 0.227848 16.4276 0.344027 16.5943C0.482965 16.7937 0.70668 16.908 0.946571 16.9079C1.17338 16.9079 1.41486 16.807 1.63786 16.6165L6.00301 12.9102C6.13783 12.7951 6.33148 12.7291 6.53283 12.7291C6.7341 12.7291 6.92736 12.7951 7.06258 12.9106L11.4131 16.6159C11.6369 16.807 11.8618 16.908 12.0882 16.908C12.471 16.908 12.8442 16.6127 12.8442 15.9528V1.51956C12.8442 0.745797 12.1994 0.0921021 11.4048 0.0921021Z" fill="#FEC115"/>
</svg>
